<?xml version="1.0" standalone="no"?>
<!DOCTYPE svg PUBLIC "-//W3C//DTD SVG 20010904//EN"
 "http://www.w3.org/TR/2001/REC-SVG-20010904/DTD/svg10.dtd">
<svg version="1.0" xmlns="http://www.w3.org/2000/svg"
 width="35px" height="35px" viewBox="0 0 2800.000000 2400.000000"
 preserveAspectRatio="xMidYMid meet">

<g transform="translate(0.000000,2400.000000) scale(0.100000,-0.100000)"
fill="#000000" stroke="none">
<path d="M6745 17898 c-419 -594 -854 -1108 -1394 -1649 -529 -529 -1038 -962
-1593 -1354 l-98 -69 0 -993 c0 -546 2 -993 5 -993 9 0 245 144 455 278 693
441 1419 1002 2007 1549 72 68 134 123 137 123 3 0 6 -1975 6 -4390 l0 -4390
875 0 875 0 0 6000 0 6000 -598 0 -598 0 -79 -112z"/>
<path d="M8670 12010 l0 -6000 880 0 880 0 0 4391 0 4391 58 -54 c493 -450
813 -717 1232 -1029 405 -303 901 -633 1263 -843 l47 -28 0 995 0 995 -102 73
c-1101 782 -2107 1786 -2917 2912 l-143 197 -599 0 -599 0 0 -6000z"/>
<path d="M14330 16062 c0 -2089 -1 -2065 50 -2294 105 -467 362 -768 776 -906
334 -112 827 -120 1181 -21 450 126 739 440 852 928 57 244 55 139 58 2274 l4
1967 -591 0 -590 0 0 -1847 c0 -1076 -4 -1888 -10 -1943 -23 -234 -81 -299
-266 -300 -79 0 -97 3 -145 28 -48 24 -58 35 -86 92 -18 36 -37 94 -43 130 -6
42 -10 737 -10 1953 l0 1887 -590 0 -590 0 0 -1948z"/>
<path d="M17830 15431 l0 -2581 580 0 580 0 0 790 0 790 173 0 c515 0 827 68
1086 236 195 128 347 334 421 572 73 234 83 374 77 1117 -4 570 -6 618 -26
723 -101 538 -400 807 -1011 908 -93 16 -208 18 -992 21 l-888 4 0 -2580z
m1550 1570 c58 -22 117 -74 143 -126 35 -72 39 -129 35 -655 -4 -583 -2 -568
-84 -659 -69 -77 -121 -93 -321 -99 l-163 -4 0 787 0 788 168 -5 c137 -5 177
-9 222 -27z"/>
<path d="M21250 15430 l0 -2580 535 0 535 0 0 1143 c0 890 -3 1195 -15 1382
-8 132 -14 245 -14 250 0 6 18 -49 39 -122 29 -97 700 -1931 950 -2595 l21
-58 520 0 519 0 0 2580 0 2580 -536 0 -535 0 5 -1307 c3 -720 8 -1342 11
-1383 l5 -75 -44 150 c-25 83 -245 704 -489 1380 l-445 1230 -531 3 -531 2 0
-2580z"/>
<path d="M20027 11470 c-76 -10 -177 -61 -212 -106 -51 -66 -67 -128 -68 -249
-1 -154 15 -200 102 -285 49 -47 98 -81 180 -125 143 -76 195 -128 206 -203
10 -74 -3 -148 -30 -180 -21 -24 -30 -27 -89 -27 -58 0 -69 3 -93 28 -27 27
-28 31 -32 157 l-3 130 -129 0 -129 0 0 -133 c0 -152 16 -231 58 -292 59 -85
193 -132 352 -122 143 9 231 50 288 137 48 73 57 112 57 265 0 130 -2 144 -26
195 -47 101 -89 136 -312 261 -44 24 -95 61 -114 82 l-35 39 4 85 c3 78 5 87
31 109 39 34 115 34 154 0 27 -23 28 -28 31 -130 l4 -106 125 0 125 0 -4 129
c-3 119 -6 133 -33 187 -51 100 -136 146 -285 157 -36 3 -91 1 -123 -3z"/>
<path d="M14537 11453 c-11 -10 -8 -988 3 -1069 20 -155 83 -251 196 -294 48
-19 79 -24 169 -24 122 -1 165 9 236 56 57 38 102 104 126 183 16 55 18 107
18 605 l0 545 -125 0 -125 0 -5 -535 c-4 -404 -8 -540 -18 -557 -20 -36 -53
-53 -103 -53 -57 0 -94 26 -109 78 -6 23 -10 231 -10 555 l0 517 -123 0 c-68
0 -127 -3 -130 -7z"/>
<path d="M15470 10770 l0 -690 116 0 116 0 -4 438 -3 437 27 -80 c15 -44 94
-240 175 -435 l148 -355 113 -3 112 -3 -2 688 -3 688 -113 3 -113 3 3 -446 3
-445 -27 78 c-14 42 -93 241 -175 442 l-150 365 -111 3 -112 3 0 -691z"/>
<path d="M16420 11340 l0 -120 80 0 80 0 0 -450 0 -450 -80 0 -80 0 0 -120 0
-120 280 0 280 0 0 120 0 120 -80 0 -80 0 0 450 0 450 80 0 80 0 0 120 0 120
-280 0 -280 0 0 -120z"/>
<path d="M17083 11438 c3 -13 72 -323 153 -690 l147 -668 126 0 127 0 147 678
c81 372 147 683 147 690 0 9 -32 12 -125 12 -121 0 -125 -1 -130 -22 -25 -109
-155 -809 -155 -837 0 -20 -5 -43 -10 -51 -7 -11 -10 1 -10 40 -1 30 -38 237
-83 460 l-82 405 -129 3 -128 3 5 -23z"/>
<path d="M18060 10770 l0 -690 325 0 325 0 0 120 0 120 -205 0 -205 0 0 170 0
170 175 0 175 0 0 115 0 115 -172 2 -173 3 -3 168 -2 167 200 0 200 0 0 115 0
115 -320 0 -320 0 0 -690z"/>
<path d="M18860 10771 l0 -691 120 0 120 0 2 263 3 262 78 -1 c86 -2 119 -14
136 -51 7 -15 11 -97 11 -217 0 -114 4 -206 11 -225 l11 -31 134 0 135 0 -15
28 c-10 20 -15 86 -18 252 -4 209 -6 229 -27 273 -13 27 -36 55 -57 68 l-34
21 40 29 c70 51 83 92 88 262 6 227 -20 321 -106 381 -75 52 -116 58 -384 64
l-248 4 0 -691z m435 453 c49 -23 57 -53 53 -203 -3 -127 -4 -131 -31 -158
-25 -26 -34 -28 -122 -31 l-95 -4 0 206 0 206 81 0 c53 0 92 -5 114 -16z"/>
<path d="M20600 11340 l0 -120 80 0 80 0 0 -450 0 -450 -80 0 -80 0 0 -120 0
-120 280 0 280 0 0 120 0 120 -80 0 -80 0 0 450 0 450 80 0 80 0 0 120 0 120
-280 0 -280 0 0 -120z"/>
<path d="M21317 11453 c-4 -3 -7 -314 -7 -691 l0 -684 238 4 c214 5 243 7 300
28 85 30 160 99 198 182 l29 63 0 415 0 415 -28 60 c-53 114 -149 182 -287
204 -71 12 -433 15 -443 4z m430 -239 c15 -11 38 -40 51 -65 23 -44 23 -47 20
-389 -3 -310 -5 -348 -21 -378 -29 -52 -70 -72 -154 -72 l-73 0 0 466 0 466
74 -4 c55 -2 82 -9 103 -24z"/>
<path d="M22456 11443 c-3 -10 -69 -304 -146 -653 -78 -349 -145 -652 -149
-672 l-9 -38 127 0 128 0 17 100 18 100 144 0 c79 0 144 -2 144 -4 0 -5 27
-139 35 -173 5 -22 9 -23 130 -23 69 0 125 2 125 5 0 3 -70 312 -155 686 -85
374 -155 682 -155 685 0 2 -56 4 -124 4 -110 0 -125 -2 -130 -17z m184 -702
c22 -114 40 -213 40 -219 0 -8 -29 -12 -95 -12 -52 0 -95 3 -95 8 0 4 18 102
40 217 22 116 43 244 47 285 l7 75 8 -73 c4 -40 26 -167 48 -281z"/>
<path d="M23140 10770 l0 -692 233 4 c255 5 289 11 380 71 59 40 122 129 136
197 7 32 11 193 11 424 0 311 -3 381 -16 427 -34 116 -104 188 -225 230 -57
20 -88 23 -291 27 l-228 4 0 -692z m426 444 c15 -11 37 -33 48 -48 20 -26 21
-42 24 -377 3 -330 2 -351 -17 -394 -28 -64 -68 -85 -158 -85 l-73 0 0 466 0
466 74 -4 c56 -2 82 -9 102 -24z"/>
<path d="M14540 8735 l0 -685 125 0 125 0 0 214 0 214 133 4 c120 3 138 6 189
31 73 36 130 100 154 174 27 82 27 474 1 542 -25 63 -60 106 -114 138 -74 43
-144 53 -390 53 l-223 0 0 -685z m460 439 c30 -30 40 -82 40 -219 0 -142 -10
-189 -45 -224 -23 -23 -34 -26 -115 -29 l-90 -4 0 252 0 252 95 -4 c80 -2 98
-6 115 -24z"/>
<path d="M15440 8735 l0 -685 120 0 120 0 0 260 0 260 70 0 c91 0 134 -18 149
-60 7 -20 11 -108 11 -227 0 -115 4 -202 10 -214 10 -17 22 -19 141 -19 l130
0 -13 23 c-9 15 -14 92 -18 257 -5 225 -6 237 -29 277 -13 23 -38 49 -56 59
l-32 17 41 31 c65 49 87 104 93 238 12 232 -26 354 -126 415 -72 43 -143 53
-394 53 l-217 0 0 -685z m452 436 l33 -29 3 -119 c6 -198 -20 -233 -170 -233
l-78 0 0 205 0 205 90 0 c85 0 91 -2 122 -29z"/>
<path d="M16300 9305 l0 -115 80 0 80 0 0 -455 0 -455 -80 0 -80 0 0 -115 0
-115 280 0 280 0 0 115 0 115 -75 0 -75 0 0 455 0 455 75 0 75 0 0 115 0 115
-280 0 -280 0 0 -115z"/>
<path d="M16962 9408 c3 -7 72 -316 154 -685 l149 -673 127 0 c112 0 127 2
132 18 3 9 68 310 146 667 77 358 143 658 146 668 5 16 -5 17 -125 17 -72 0
-131 -3 -131 -6 0 -4 -36 -192 -80 -419 -44 -227 -81 -439 -81 -471 -1 -54 -2
-51 -15 41 -7 55 -47 269 -88 475 -42 206 -76 376 -76 377 0 2 -59 3 -131 3
-101 0 -130 -3 -127 -12z"/>
<path d="M17906 8747 c-82 -369 -151 -678 -154 -685 -3 -10 23 -12 124 -10
l128 3 12 60 c6 33 15 77 18 98 l7 37 143 0 143 0 18 -100 18 -100 128 0 127
0 -8 33 c-4 17 -74 326 -155 685 l-149 652 -125 0 -126 0 -149 -673z m333 -57
c22 -113 41 -208 41 -212 0 -5 -43 -8 -95 -8 -69 0 -95 3 -95 13 0 6 18 113
40 237 22 124 43 248 47 275 l7 50 7 -75 c4 -41 26 -167 48 -280z"/>
<path d="M18730 8736 l0 -686 229 0 c200 0 237 2 293 20 120 37 201 124 233
248 14 52 16 120 13 444 -3 351 -5 387 -22 428 -31 72 -72 125 -123 159 -86
58 -124 64 -385 69 l-238 4 0 -686z m424 449 c19 -9 43 -34 57 -58 l24 -42 0
-350 c0 -335 -1 -351 -21 -385 -34 -59 -76 -80 -160 -80 l-74 0 0 465 0 465
71 0 c43 0 84 -6 103 -15z"/>
<path d="M19875 9408 c-3 -7 -68 -299 -145 -648 -78 -349 -145 -652 -149 -672
l-9 -38 127 0 128 0 17 100 18 100 142 0 143 0 19 -97 20 -98 128 -3 c118 -2
127 -1 122 15 -6 22 -306 1341 -306 1348 0 3 -56 5 -125 5 -92 0 -127 -3 -130
-12z m184 -712 c23 -110 41 -206 41 -213 0 -10 -23 -13 -95 -13 -68 0 -95 3
-95 12 0 7 18 107 39 223 22 115 43 244 48 285 l7 75 8 -85 c4 -47 25 -175 47
-284z"/>
<path d="M18710 7384 c-145 -39 -234 -143 -259 -304 -14 -84 -14 -695 -1 -780
31 -196 150 -298 361 -308 168 -8 287 40 356 143 65 98 66 111 71 513 2 246 0
386 -8 432 -28 168 -126 276 -278 309 -71 15 -175 13 -242 -5z m208 -231 c54
-34 57 -57 57 -453 0 -319 -2 -370 -17 -402 -22 -49 -61 -73 -118 -73 -57 0
-96 24 -118 73 -15 32 -17 82 -17 397 0 377 4 412 45 450 38 35 120 38 168 8z"/>
<path d="M14540 6696 l0 -686 218 0 c165 0 232 4 277 16 146 37 236 133 265
279 8 42 10 175 8 430 -4 406 -4 408 -68 500 -33 48 -90 91 -160 121 -39 16
-77 19 -292 22 l-248 4 0 -686z m431 448 c17 -10 41 -37 53 -59 20 -38 21 -54
21 -385 0 -325 -1 -347 -20 -384 -31 -62 -62 -79 -155 -84 l-80 -5 0 465 c0
256 3 468 8 472 13 14 139 0 173 -20z"/>
<path d="M15480 6695 l0 -685 330 0 330 0 0 120 0 120 -205 0 -205 0 0 170 0
170 175 0 175 0 0 115 0 115 -175 0 -175 0 0 165 0 165 200 0 200 0 0 115 0
115 -325 0 -325 0 0 -685z"/>
<path d="M16290 6695 l0 -685 310 0 310 0 0 125 0 125 -180 0 -180 0 0 560 0
560 -130 0 -130 0 0 -685z"/>
<path d="M17470 6695 l0 -685 116 0 115 0 -3 443 -3 444 27 -81 c15 -45 94
-243 177 -441 l149 -360 111 -3 111 -3 0 686 0 685 -116 0 -116 0 4 -434 3
-433 -31 86 c-17 47 -93 237 -169 421 -75 184 -139 341 -142 348 -4 8 -37 12
-119 12 l-114 0 0 -685z"/>
<path d="M19410 6696 l0 -686 120 0 120 0 0 260 0 260 84 0 c75 0 88 -3 113
-24 l28 -24 5 -224 c3 -122 9 -229 13 -235 6 -9 46 -13 143 -13 l134 0 -14 23
c-11 17 -15 75 -18 247 -4 186 -8 232 -22 268 -17 38 -55 81 -88 96 -11 5 -11
7 0 12 30 14 74 60 95 98 20 38 22 55 22 216 0 119 -4 190 -14 223 -18 63 -77
128 -143 158 -51 23 -64 24 -315 27 l-263 3 0 -685z m430 456 c51 -25 60 -51
60 -185 0 -184 -21 -211 -170 -212 l-75 0 -3 208 -2 207 77 0 c54 0 89 -5 113
-18z"/>
<path d="M20250 7265 l0 -115 110 0 110 0 0 -570 0 -570 125 0 125 0 0 570 0
570 115 0 115 0 0 115 0 115 -350 0 -350 0 0 -115z"/>
<path d="M21090 6695 l0 -685 330 0 331 0 -3 118 -3 117 -202 3 -203 2 0 170
0 170 175 0 175 0 0 115 0 115 -175 0 -175 0 0 165 0 165 195 0 195 0 0 115 0
115 -320 0 -320 0 0 -685z"/>
</g>
</svg>
